<mxfile host="app.diagrams.net" agent="Mozilla/5.0 (Windows NT 10.0; Win64; x64) AppleWebKit/537.36 (KHTML, like Gecko) Chrome/129.0.0.0 Safari/537.36" version="24.7.5">
  <diagram name="Page-1" id="Fclqe2KvUU67XkT28i2e">
    <mxGraphModel dx="700" dy="497" grid="0" gridSize="10" guides="1" tooltips="1" connect="1" arrows="1" fold="1" page="1" pageScale="1" pageWidth="827" pageHeight="1169" background="#FFFCFC" math="0" shadow="0">
      <root>
        <mxCell id="0" />
        <mxCell id="1" parent="0" />
        <mxCell id="JuTXXJLlA8d2acPgj7VG-93" value="&lt;font style=&quot;font-size: 10px;&quot;&gt;Web browser&lt;/font&gt;" style="rounded=1;whiteSpace=wrap;html=1;fillColor=none;strokeColor=#4F4F4F;arcSize=14;align=left;verticalAlign=top;fontColor=#030303;spacing=0;spacingLeft=7;spacingRight=0;spacingTop=-1;fontFamily=Courier New;fontStyle=1" vertex="1" parent="1">
          <mxGeometry x="130.75" y="21" width="153" height="56" as="geometry" />
        </mxCell>
        <mxCell id="JuTXXJLlA8d2acPgj7VG-76" value="&lt;font style=&quot;font-size: 10px;&quot;&gt;&amp;nbsp; &amp;nbsp; &amp;nbsp; &amp;nbsp; &amp;nbsp; &amp;nbsp; &amp;nbsp; &amp;nbsp; &amp;nbsp;JWizard infrastructure&lt;/font&gt;" style="rounded=1;whiteSpace=wrap;html=1;fillColor=none;strokeColor=#4F4F4F;arcSize=2;align=left;verticalAlign=top;fontColor=#FAFAFA;spacing=0;spacingLeft=7;spacingRight=0;spacingTop=-1;fontFamily=Courier New;" vertex="1" parent="1">
          <mxGeometry x="139" y="156" width="623" height="381" as="geometry" />
        </mxCell>
        <mxCell id="JuTXXJLlA8d2acPgj7VG-59" value="&lt;font color=&quot;#000000&quot; style=&quot;font-size: 10px;&quot;&gt;&lt;b&gt;RabbitMQ&lt;/b&gt;&lt;/font&gt;" style="rounded=1;whiteSpace=wrap;html=1;fillColor=none;strokeColor=#4F4F4F;arcSize=5;align=left;verticalAlign=top;fontColor=#FAFAFA;spacing=0;spacingLeft=7;spacingRight=0;spacingTop=-1;fontFamily=Courier New;" vertex="1" parent="1">
          <mxGeometry x="488" y="372.5" width="115" height="150" as="geometry" />
        </mxCell>
        <mxCell id="JuTXXJLlA8d2acPgj7VG-71" style="edgeStyle=orthogonalEdgeStyle;shape=connector;rounded=1;orthogonalLoop=1;jettySize=auto;html=1;exitX=1;exitY=0.75;exitDx=0;exitDy=0;entryX=0;entryY=0.25;entryDx=0;entryDy=0;strokeColor=#d6b656;align=center;verticalAlign=middle;fontFamily=Helvetica;fontSize=11;fontColor=default;labelBackgroundColor=default;endArrow=none;endFill=0;fillColor=#fff2cc;" edge="1" parent="1" source="JuTXXJLlA8d2acPgj7VG-15" target="JuTXXJLlA8d2acPgj7VG-59">
          <mxGeometry relative="1" as="geometry" />
        </mxCell>
        <mxCell id="JuTXXJLlA8d2acPgj7VG-15" value="&lt;font style=&quot;font-size: 10px;&quot;&gt;JWC Nodes pool&lt;/font&gt;" style="rounded=1;whiteSpace=wrap;html=1;fillColor=none;strokeColor=#4F4F4F;arcSize=5;align=left;verticalAlign=top;fontColor=#050505;spacing=0;spacingLeft=7;spacingRight=0;spacingTop=-1;fontFamily=Courier New;fontStyle=1" vertex="1" parent="1">
          <mxGeometry x="296" y="215" width="139" height="166" as="geometry" />
        </mxCell>
        <mxCell id="JuTXXJLlA8d2acPgj7VG-28" value="&lt;font style=&quot;font-size: 10px;&quot;&gt;Discord service&lt;/font&gt;" style="rounded=1;whiteSpace=wrap;html=1;fillColor=none;strokeColor=#4F4F4F;arcSize=5;align=left;verticalAlign=top;fontColor=#050505;spacing=0;spacingLeft=7;spacingRight=0;spacingTop=-1;fontFamily=Courier New;fontStyle=1" vertex="1" parent="1">
          <mxGeometry x="296" y="21" width="135" height="122" as="geometry" />
        </mxCell>
        <mxCell id="JuTXXJLlA8d2acPgj7VG-26" style="edgeStyle=orthogonalEdgeStyle;shape=connector;rounded=1;orthogonalLoop=1;jettySize=auto;html=1;exitX=0.5;exitY=0;exitDx=0;exitDy=0;entryX=1;entryY=0.5;entryDx=0;entryDy=0;strokeColor=#000000;align=center;verticalAlign=middle;fontFamily=Helvetica;fontSize=11;fontColor=default;labelBackgroundColor=default;endArrow=none;endFill=0;" edge="1" parent="1" source="JuTXXJLlA8d2acPgj7VG-79" target="JuTXXJLlA8d2acPgj7VG-25">
          <mxGeometry relative="1" as="geometry" />
        </mxCell>
        <mxCell id="JuTXXJLlA8d2acPgj7VG-31" value="tcp://&lt;div style=&quot;font-size: 10px;&quot;&gt;&lt;br style=&quot;font-size: 10px;&quot;&gt;&lt;div style=&quot;font-size: 10px;&quot;&gt;udp://&lt;br style=&quot;font-size: 10px;&quot;&gt;&lt;/div&gt;&lt;/div&gt;" style="edgeLabel;html=1;align=center;verticalAlign=middle;resizable=0;points=[];rounded=1;fontFamily=Courier New;fontSize=10;fontColor=#000000;labelBackgroundColor=none;fontStyle=1" vertex="1" connectable="0" parent="JuTXXJLlA8d2acPgj7VG-26">
          <mxGeometry x="0.6239" y="-2" relative="1" as="geometry">
            <mxPoint x="14" y="2" as="offset" />
          </mxGeometry>
        </mxCell>
        <mxCell id="JuTXXJLlA8d2acPgj7VG-24" value="&lt;font style=&quot;font-size: 10px;&quot;&gt;Lavalink Nodes pool&lt;/font&gt;" style="rounded=1;whiteSpace=wrap;html=1;fillColor=none;strokeColor=#4F4F4F;arcSize=5;align=left;verticalAlign=top;fontColor=#030303;spacing=0;spacingLeft=7;spacingRight=0;spacingTop=-1;fontFamily=Courier New;fontStyle=1" vertex="1" parent="1">
          <mxGeometry x="586" y="178" width="160" height="180" as="geometry" />
        </mxCell>
        <mxCell id="JuTXXJLlA8d2acPgj7VG-51" style="edgeStyle=orthogonalEdgeStyle;shape=connector;rounded=1;orthogonalLoop=1;jettySize=auto;html=1;exitX=1;exitY=0.5;exitDx=0;exitDy=0;strokeColor=#4F4F4F;align=center;verticalAlign=middle;fontFamily=Helvetica;fontSize=11;fontColor=default;labelBackgroundColor=default;endArrow=none;endFill=0;" edge="1" parent="1" source="JuTXXJLlA8d2acPgj7VG-2">
          <mxGeometry relative="1" as="geometry">
            <mxPoint x="435" y="302" as="targetPoint" />
            <Array as="points">
              <mxPoint x="421" y="259" />
              <mxPoint x="421" y="302" />
              <mxPoint x="435" y="302" />
            </Array>
          </mxGeometry>
        </mxCell>
        <mxCell id="JuTXXJLlA8d2acPgj7VG-2" value="JWC Node 1" style="rounded=1;whiteSpace=wrap;html=1;fillColor=#f5f5f5;fillStyle=auto;fontFamily=Courier New;fontStyle=1;horizontal=1;fontColor=#333333;strokeColor=#666666;fontSize=10;" vertex="1" parent="1">
          <mxGeometry x="318" y="246" width="88" height="25" as="geometry" />
        </mxCell>
        <mxCell id="JuTXXJLlA8d2acPgj7VG-37" style="edgeStyle=orthogonalEdgeStyle;shape=connector;rounded=1;orthogonalLoop=1;jettySize=auto;html=1;exitX=0.5;exitY=1;exitDx=0;exitDy=0;entryX=0.5;entryY=0;entryDx=0;entryDy=0;strokeColor=#FFFFFF;align=center;verticalAlign=middle;fontFamily=Helvetica;fontSize=11;fontColor=default;labelBackgroundColor=default;endArrow=none;endFill=0;dashed=1;strokeWidth=1;" edge="1" parent="1" source="JuTXXJLlA8d2acPgj7VG-3" target="JuTXXJLlA8d2acPgj7VG-4">
          <mxGeometry relative="1" as="geometry" />
        </mxCell>
        <mxCell id="JuTXXJLlA8d2acPgj7VG-53" style="edgeStyle=orthogonalEdgeStyle;shape=connector;rounded=1;orthogonalLoop=1;jettySize=auto;html=1;exitX=1;exitY=0.5;exitDx=0;exitDy=0;strokeColor=#4F4F4F;align=center;verticalAlign=middle;fontFamily=Helvetica;fontSize=11;fontColor=default;labelBackgroundColor=default;endArrow=none;endFill=0;" edge="1" parent="1" source="JuTXXJLlA8d2acPgj7VG-3">
          <mxGeometry relative="1" as="geometry">
            <mxPoint x="434" y="302" as="targetPoint" />
          </mxGeometry>
        </mxCell>
        <mxCell id="JuTXXJLlA8d2acPgj7VG-3" value="JWC Node 2" style="rounded=1;whiteSpace=wrap;html=1;fillColor=#f5f5f5;fillStyle=auto;fontFamily=Courier New;fontStyle=1;horizontal=1;fontColor=#333333;strokeColor=#666666;fontSize=10;" vertex="1" parent="1">
          <mxGeometry x="318" y="289.5" width="87" height="25" as="geometry" />
        </mxCell>
        <mxCell id="JuTXXJLlA8d2acPgj7VG-52" style="edgeStyle=orthogonalEdgeStyle;shape=connector;rounded=1;orthogonalLoop=1;jettySize=auto;html=1;exitX=1;exitY=0.5;exitDx=0;exitDy=0;strokeColor=#4F4F4F;align=center;verticalAlign=middle;fontFamily=Helvetica;fontSize=11;fontColor=default;labelBackgroundColor=default;endArrow=none;endFill=0;entryX=0.999;entryY=0.518;entryDx=0;entryDy=0;entryPerimeter=0;" edge="1" parent="1" source="JuTXXJLlA8d2acPgj7VG-4" target="JuTXXJLlA8d2acPgj7VG-15">
          <mxGeometry relative="1" as="geometry">
            <mxPoint x="433" y="301" as="targetPoint" />
            <Array as="points">
              <mxPoint x="421" y="348" />
              <mxPoint x="421" y="302" />
              <mxPoint x="435" y="302" />
            </Array>
          </mxGeometry>
        </mxCell>
        <mxCell id="JuTXXJLlA8d2acPgj7VG-4" value="JWC Node N" style="rounded=1;whiteSpace=wrap;html=1;fillColor=#f5f5f5;fillStyle=auto;fontFamily=Courier New;fontStyle=1;horizontal=1;fontColor=#333333;strokeColor=#666666;fontSize=10;" vertex="1" parent="1">
          <mxGeometry x="318.5" y="336" width="86" height="25" as="geometry" />
        </mxCell>
        <mxCell id="JuTXXJLlA8d2acPgj7VG-78" style="edgeStyle=orthogonalEdgeStyle;shape=connector;rounded=1;orthogonalLoop=1;jettySize=auto;html=1;exitX=0.75;exitY=0;exitDx=0;exitDy=0;entryX=0;entryY=0.5;entryDx=0;entryDy=0;strokeColor=#000000;align=center;verticalAlign=middle;fontFamily=Helvetica;fontSize=11;fontColor=default;labelBackgroundColor=default;endArrow=none;endFill=0;" edge="1" parent="1" source="JuTXXJLlA8d2acPgj7VG-8" target="JuTXXJLlA8d2acPgj7VG-29">
          <mxGeometry relative="1" as="geometry" />
        </mxCell>
        <mxCell id="JuTXXJLlA8d2acPgj7VG-94" style="edgeStyle=orthogonalEdgeStyle;shape=connector;rounded=1;orthogonalLoop=1;jettySize=auto;html=1;exitX=0.25;exitY=0;exitDx=0;exitDy=0;entryX=0.5;entryY=1;entryDx=0;entryDy=0;strokeColor=#000000;align=center;verticalAlign=middle;fontFamily=Helvetica;fontSize=11;fontColor=default;labelBackgroundColor=default;endArrow=none;endFill=0;" edge="1" parent="1" source="JuTXXJLlA8d2acPgj7VG-8" target="JuTXXJLlA8d2acPgj7VG-83">
          <mxGeometry relative="1" as="geometry" />
        </mxCell>
        <mxCell id="JuTXXJLlA8d2acPgj7VG-8" value="&lt;div style=&quot;font-size: 10px;&quot;&gt;&lt;font style=&quot;font-size: 10px;&quot;&gt;&lt;span style=&quot;font-size: 10px;&quot;&gt;Reverse&lt;br style=&quot;font-size: 10px;&quot;&gt;&lt;/span&gt;&lt;/font&gt;&lt;font style=&quot;font-size: 10px;&quot;&gt;&lt;span style=&quot;font-size: 10px;&quot;&gt;proxy&lt;/span&gt;&lt;/font&gt;&lt;/div&gt;" style="rounded=1;whiteSpace=wrap;html=1;fontFamily=Courier New;fontStyle=1;fillColor=#d5e8d4;strokeColor=#82b366;textShadow=0;labelBorderColor=none;labelBackgroundColor=none;fontSize=10;" vertex="1" parent="1">
          <mxGeometry x="164" y="138" width="62" height="317" as="geometry" />
        </mxCell>
        <mxCell id="JuTXXJLlA8d2acPgj7VG-16" style="edgeStyle=orthogonalEdgeStyle;rounded=1;orthogonalLoop=1;jettySize=auto;html=1;exitX=0;exitY=0.5;exitDx=0;exitDy=0;fontColor=#F5F5F5;endArrow=none;endFill=0;startArrow=none;startFill=0;strokeColor=#000000;" edge="1" parent="1" source="JuTXXJLlA8d2acPgj7VG-14">
          <mxGeometry relative="1" as="geometry">
            <mxPoint x="435" y="302" as="targetPoint" />
            <Array as="points">
              <mxPoint x="465" y="276" />
              <mxPoint x="465" y="302" />
              <mxPoint x="435" y="302" />
            </Array>
          </mxGeometry>
        </mxCell>
        <mxCell id="JuTXXJLlA8d2acPgj7VG-17" value="ws://" style="edgeLabel;html=1;align=center;verticalAlign=middle;resizable=0;points=[];rounded=1;fontColor=#000000;labelBackgroundColor=none;fontFamily=Courier New;fontStyle=1;fontSize=10;" vertex="1" connectable="0" parent="JuTXXJLlA8d2acPgj7VG-16">
          <mxGeometry x="-0.5371" y="-1" relative="1" as="geometry">
            <mxPoint x="-9" y="-7" as="offset" />
          </mxGeometry>
        </mxCell>
        <mxCell id="JuTXXJLlA8d2acPgj7VG-14" value="Load&lt;div style=&quot;font-size: 10px;&quot;&gt;balancer&lt;/div&gt;" style="rounded=1;whiteSpace=wrap;html=1;fontFamily=Courier New;fontStyle=1;fillColor=#d5e8d4;strokeColor=#82b366;textShadow=0;labelBorderColor=none;labelBackgroundColor=none;fontSize=10;" vertex="1" parent="1">
          <mxGeometry x="499" y="259" width="72" height="34" as="geometry" />
        </mxCell>
        <mxCell id="JuTXXJLlA8d2acPgj7VG-23" style="edgeStyle=orthogonalEdgeStyle;shape=connector;rounded=1;orthogonalLoop=1;jettySize=auto;html=1;exitX=0;exitY=0.5;exitDx=0;exitDy=0;entryX=1;entryY=0.25;entryDx=0;entryDy=0;strokeColor=#b85450;align=center;verticalAlign=middle;fontFamily=Helvetica;fontSize=11;fontColor=default;labelBackgroundColor=default;endArrow=none;endFill=0;fillColor=#f8cecc;" edge="1" parent="1" source="JuTXXJLlA8d2acPgj7VG-18" target="JuTXXJLlA8d2acPgj7VG-14">
          <mxGeometry relative="1" as="geometry" />
        </mxCell>
        <mxCell id="JuTXXJLlA8d2acPgj7VG-18" value="Lavalink Node 1" style="rounded=1;whiteSpace=wrap;html=1;fillColor=#f8cecc;fillStyle=auto;fontFamily=Courier New;fontStyle=1;horizontal=1;strokeColor=#b85450;fontSize=10;" vertex="1" parent="1">
          <mxGeometry x="620" y="210" width="112" height="25" as="geometry" />
        </mxCell>
        <mxCell id="JuTXXJLlA8d2acPgj7VG-22" style="edgeStyle=orthogonalEdgeStyle;rounded=1;orthogonalLoop=1;jettySize=auto;html=1;exitX=0;exitY=0.5;exitDx=0;exitDy=0;entryX=1;entryY=0.5;entryDx=0;entryDy=0;strokeColor=#b85450;endArrow=none;endFill=0;fillColor=#f8cecc;" edge="1" parent="1" source="JuTXXJLlA8d2acPgj7VG-19" target="JuTXXJLlA8d2acPgj7VG-14">
          <mxGeometry relative="1" as="geometry" />
        </mxCell>
        <mxCell id="JuTXXJLlA8d2acPgj7VG-38" style="edgeStyle=orthogonalEdgeStyle;shape=connector;rounded=1;orthogonalLoop=1;jettySize=auto;html=1;exitX=0.5;exitY=1;exitDx=0;exitDy=0;entryX=0.5;entryY=0;entryDx=0;entryDy=0;strokeColor=#b85450;align=center;verticalAlign=middle;fontFamily=Helvetica;fontSize=11;fontColor=default;labelBackgroundColor=default;endArrow=none;endFill=0;dashed=1;fillColor=#f8cecc;" edge="1" parent="1" source="JuTXXJLlA8d2acPgj7VG-19" target="JuTXXJLlA8d2acPgj7VG-20">
          <mxGeometry relative="1" as="geometry" />
        </mxCell>
        <mxCell id="JuTXXJLlA8d2acPgj7VG-19" value="Lavalink Node 2" style="rounded=1;whiteSpace=wrap;html=1;fillColor=#f8cecc;fillStyle=auto;fontFamily=Courier New;fontStyle=1;horizontal=1;strokeColor=#b85450;fontSize=10;" vertex="1" parent="1">
          <mxGeometry x="620" y="263.5" width="112" height="25" as="geometry" />
        </mxCell>
        <mxCell id="JuTXXJLlA8d2acPgj7VG-21" style="edgeStyle=orthogonalEdgeStyle;rounded=1;orthogonalLoop=1;jettySize=auto;html=1;exitX=0;exitY=0.5;exitDx=0;exitDy=0;entryX=1;entryY=0.75;entryDx=0;entryDy=0;strokeColor=#b85450;endArrow=none;endFill=0;fillColor=#f8cecc;" edge="1" parent="1" source="JuTXXJLlA8d2acPgj7VG-20" target="JuTXXJLlA8d2acPgj7VG-14">
          <mxGeometry relative="1" as="geometry" />
        </mxCell>
        <mxCell id="JuTXXJLlA8d2acPgj7VG-20" value="Lavalink Node N" style="rounded=1;whiteSpace=wrap;html=1;fillColor=#f8cecc;fillStyle=auto;fontFamily=Courier New;fontStyle=1;horizontal=1;strokeColor=#b85450;fontSize=10;" vertex="1" parent="1">
          <mxGeometry x="620" y="317" width="112" height="25" as="geometry" />
        </mxCell>
        <mxCell id="JuTXXJLlA8d2acPgj7VG-25" value="Audio interceptor" style="rounded=1;whiteSpace=wrap;html=1;fontFamily=Courier New;fontStyle=1;fillColor=#dae8fc;strokeColor=#6c8ebf;textShadow=0;labelBorderColor=none;labelBackgroundColor=none;fontSize=10;" vertex="1" parent="1">
          <mxGeometry x="311.5" y="50" width="104" height="34" as="geometry" />
        </mxCell>
        <mxCell id="JuTXXJLlA8d2acPgj7VG-29" value="Interactions interceptor" style="rounded=1;whiteSpace=wrap;html=1;fontFamily=Courier New;fontStyle=1;fillColor=#dae8fc;strokeColor=#6c8ebf;textShadow=0;labelBorderColor=none;labelBackgroundColor=none;fontSize=10;" vertex="1" parent="1">
          <mxGeometry x="311.5" y="96" width="104" height="34" as="geometry" />
        </mxCell>
        <mxCell id="JuTXXJLlA8d2acPgj7VG-34" value="ws://" style="edgeLabel;html=1;align=center;verticalAlign=middle;resizable=0;points=[];rounded=1;fontColor=#000000;labelBackgroundColor=none;fontFamily=Courier New;fontStyle=1;fontSize=10;" vertex="1" connectable="0" parent="1">
          <mxGeometry x="260.0014285714287" y="104" as="geometry" />
        </mxCell>
        <mxCell id="JuTXXJLlA8d2acPgj7VG-64" style="edgeStyle=orthogonalEdgeStyle;shape=connector;rounded=1;orthogonalLoop=1;jettySize=auto;html=1;exitX=1;exitY=0.5;exitDx=0;exitDy=0;entryX=-0.001;entryY=0.358;entryDx=0;entryDy=0;strokeColor=#d6b656;align=center;verticalAlign=middle;fontFamily=Helvetica;fontSize=11;fontColor=default;labelBackgroundColor=default;endArrow=none;endFill=0;entryPerimeter=0;fillColor=#fff2cc;" edge="1" parent="1" source="JuTXXJLlA8d2acPgj7VG-39" target="JuTXXJLlA8d2acPgj7VG-59">
          <mxGeometry relative="1" as="geometry" />
        </mxCell>
        <mxCell id="JuTXXJLlA8d2acPgj7VG-39" value="JWA Instance" style="rounded=1;whiteSpace=wrap;html=1;fillColor=#e1d5e7;fillStyle=auto;fontFamily=Courier New;fontStyle=1;horizontal=1;strokeColor=#9673a6;fontSize=10;" vertex="1" parent="1">
          <mxGeometry x="306.75" y="414" width="110.5" height="25" as="geometry" />
        </mxCell>
        <mxCell id="JuTXXJLlA8d2acPgj7VG-42" value="amqp://" style="edgeLabel;html=1;align=center;verticalAlign=middle;resizable=0;points=[];rounded=1;fontColor=#000000;labelBackgroundColor=none;fontFamily=Courier New;fontStyle=1;fontSize=10;" vertex="1" connectable="0" parent="1">
          <mxGeometry x="459.9990476190477" y="329.5" as="geometry" />
        </mxCell>
        <mxCell id="JuTXXJLlA8d2acPgj7VG-49" value="amqp://" style="edgeLabel;html=1;align=center;verticalAlign=middle;resizable=0;points=[];rounded=1;fontColor=#000000;labelBackgroundColor=none;fontFamily=Courier New;fontStyle=1;fontSize=10;" vertex="1" connectable="0" parent="1">
          <mxGeometry x="441.9990476190477" y="418" as="geometry" />
        </mxCell>
        <mxCell id="JuTXXJLlA8d2acPgj7VG-55" value="ws://" style="edgeLabel;html=1;align=center;verticalAlign=middle;resizable=0;points=[];rounded=1;fontColor=#000000;labelBackgroundColor=none;fontFamily=Courier New;fontStyle=1;fontSize=10;" vertex="1" connectable="0" parent="1">
          <mxGeometry x="247.00142857142868" y="283" as="geometry" />
        </mxCell>
        <mxCell id="JuTXXJLlA8d2acPgj7VG-56" value="http://" style="edgeLabel;html=1;align=center;verticalAlign=middle;resizable=0;points=[];rounded=1;fontColor=#030303;labelBackgroundColor=none;fontFamily=Courier New;fontStyle=1;fontSize=10;" vertex="1" connectable="0" parent="1">
          <mxGeometry x="260.0014285714287" y="418" as="geometry" />
        </mxCell>
        <mxCell id="JuTXXJLlA8d2acPgj7VG-57" value="ws://" style="edgeLabel;html=1;align=center;verticalAlign=middle;resizable=0;points=[];rounded=1;fontColor=#080808;labelBackgroundColor=none;fontFamily=Courier New;fontStyle=1;fontSize=10;" vertex="1" connectable="0" parent="1">
          <mxGeometry x="260.0014285714287" y="436" as="geometry" />
        </mxCell>
        <mxCell id="JuTXXJLlA8d2acPgj7VG-58" value="Pub/Sub" style="shape=cylinder3;whiteSpace=wrap;html=1;boundedLbl=1;backgroundOutline=1;size=5.4285714285715585;rounded=1;fontFamily=Courier New;fontSize=11;labelBackgroundColor=none;rotation=90;horizontal=0;fillColor=#ffe6cc;strokeColor=#d79b00;fontStyle=1" vertex="1" parent="1">
          <mxGeometry x="530" y="367" width="27" height="90" as="geometry" />
        </mxCell>
        <mxCell id="JuTXXJLlA8d2acPgj7VG-61" value="Pub/Sub" style="shape=cylinder3;whiteSpace=wrap;html=1;boundedLbl=1;backgroundOutline=1;size=5.4285714285715585;rounded=1;fontFamily=Courier New;fontSize=11;labelBackgroundColor=none;rotation=90;horizontal=0;fillColor=#ffe6cc;strokeColor=#d79b00;fontStyle=1" vertex="1" parent="1">
          <mxGeometry x="530" y="408" width="27" height="90" as="geometry" />
        </mxCell>
        <mxCell id="JuTXXJLlA8d2acPgj7VG-62" value="Pub/Sub" style="shape=cylinder3;whiteSpace=wrap;html=1;boundedLbl=1;backgroundOutline=1;size=5.4285714285715585;rounded=1;fontFamily=Courier New;fontSize=11;labelBackgroundColor=none;rotation=90;horizontal=0;fillColor=#ffe6cc;strokeColor=#d79b00;fontStyle=1" vertex="1" parent="1">
          <mxGeometry x="530" y="453.5" width="27" height="90" as="geometry" />
        </mxCell>
        <mxCell id="JuTXXJLlA8d2acPgj7VG-63" style="edgeStyle=orthogonalEdgeStyle;shape=connector;rounded=1;orthogonalLoop=1;jettySize=auto;html=1;exitX=1;exitY=0.5;exitDx=0;exitDy=0;exitPerimeter=0;entryX=0;entryY=0.5;entryDx=0;entryDy=0;entryPerimeter=0;strokeColor=#d79b00;align=center;verticalAlign=middle;fontFamily=Helvetica;fontSize=11;fontColor=default;labelBackgroundColor=default;endArrow=none;endFill=0;dashed=1;fillColor=#ffe6cc;" edge="1" parent="1" source="JuTXXJLlA8d2acPgj7VG-61" target="JuTXXJLlA8d2acPgj7VG-62">
          <mxGeometry relative="1" as="geometry" />
        </mxCell>
        <mxCell id="JuTXXJLlA8d2acPgj7VG-74" value="http://" style="edgeLabel;html=1;align=center;verticalAlign=middle;resizable=0;points=[];rounded=1;fontColor=#000000;labelBackgroundColor=none;fontFamily=Courier New;fontStyle=1;fontSize=10;" vertex="1" connectable="0" parent="1">
          <mxGeometry x="155.00142857142868" y="113" as="geometry" />
        </mxCell>
        <mxCell id="JuTXXJLlA8d2acPgj7VG-75" value="ws://" style="edgeLabel;html=1;align=center;verticalAlign=middle;resizable=0;points=[];rounded=1;fontColor=#000000;labelBackgroundColor=none;fontFamily=Courier New;fontStyle=1;fontSize=10;" vertex="1" connectable="0" parent="1">
          <mxGeometry x="158.00142857142868" y="127" as="geometry" />
        </mxCell>
        <mxCell id="JuTXXJLlA8d2acPgj7VG-80" style="edgeStyle=orthogonalEdgeStyle;shape=connector;rounded=1;orthogonalLoop=1;jettySize=auto;html=1;exitX=0.5;exitY=1;exitDx=0;exitDy=0;entryX=0;entryY=0.25;entryDx=0;entryDy=0;strokeColor=#000000;align=center;verticalAlign=middle;fontFamily=Helvetica;fontSize=11;fontColor=default;labelBackgroundColor=default;endArrow=none;endFill=0;" edge="1" parent="1" source="JuTXXJLlA8d2acPgj7VG-79" target="JuTXXJLlA8d2acPgj7VG-24">
          <mxGeometry relative="1" as="geometry" />
        </mxCell>
        <mxCell id="JuTXXJLlA8d2acPgj7VG-79" value="&lt;div style=&quot;font-size: 10px;&quot;&gt;Gateway&lt;/div&gt;" style="rounded=1;whiteSpace=wrap;html=1;fontFamily=Courier New;fontStyle=1;fillColor=#e1d5e7;strokeColor=#9673a6;textShadow=0;labelBorderColor=none;labelBackgroundColor=none;fontSize=10;" vertex="1" parent="1">
          <mxGeometry x="488" y="138" width="62" height="40" as="geometry" />
        </mxCell>
        <mxCell id="JuTXXJLlA8d2acPgj7VG-81" value="tcp://&lt;div style=&quot;font-size: 10px;&quot;&gt;&lt;br style=&quot;font-size: 10px;&quot;&gt;&lt;div style=&quot;font-size: 10px;&quot;&gt;udp://&lt;br style=&quot;font-size: 10px;&quot;&gt;&lt;/div&gt;&lt;/div&gt;" style="edgeLabel;html=1;align=center;verticalAlign=middle;resizable=0;points=[];rounded=1;fontFamily=Courier New;fontSize=10;fontColor=#000000;labelBackgroundColor=none;fontStyle=1" vertex="1" connectable="0" parent="1">
          <mxGeometry x="554.0042857142857" y="222.5" as="geometry" />
        </mxCell>
        <mxCell id="JuTXXJLlA8d2acPgj7VG-83" value="JWW UI" style="rounded=1;whiteSpace=wrap;html=1;fillColor=#fff2cc;fillStyle=auto;fontFamily=Courier New;fontStyle=1;horizontal=1;strokeColor=#d6b656;fontSize=10;" vertex="1" parent="1">
          <mxGeometry x="158" y="42" width="110.5" height="25" as="geometry" />
        </mxCell>
        <mxCell id="JuTXXJLlA8d2acPgj7VG-87" style="edgeStyle=orthogonalEdgeStyle;shape=connector;rounded=1;orthogonalLoop=1;jettySize=auto;html=1;exitX=0;exitY=0.5;exitDx=0;exitDy=0;entryX=1.005;entryY=0.559;entryDx=0;entryDy=0;entryPerimeter=0;strokeColor=#000000;align=center;verticalAlign=middle;fontFamily=Helvetica;fontSize=11;fontColor=default;labelBackgroundColor=default;endArrow=none;endFill=0;" edge="1" parent="1" source="JuTXXJLlA8d2acPgj7VG-4" target="JuTXXJLlA8d2acPgj7VG-8">
          <mxGeometry relative="1" as="geometry" />
        </mxCell>
        <mxCell id="JuTXXJLlA8d2acPgj7VG-88" style="edgeStyle=orthogonalEdgeStyle;shape=connector;rounded=1;orthogonalLoop=1;jettySize=auto;html=1;exitX=0;exitY=0.5;exitDx=0;exitDy=0;strokeColor=#080808;align=center;verticalAlign=middle;fontFamily=Helvetica;fontSize=11;fontColor=default;labelBackgroundColor=default;endArrow=none;endFill=0;" edge="1" parent="1" source="JuTXXJLlA8d2acPgj7VG-39">
          <mxGeometry relative="1" as="geometry">
            <mxPoint x="226" y="427" as="targetPoint" />
            <Array as="points">
              <mxPoint x="266" y="427" />
              <mxPoint x="226" y="427" />
            </Array>
          </mxGeometry>
        </mxCell>
        <mxCell id="JuTXXJLlA8d2acPgj7VG-89" value="MySQL DB" style="rounded=1;whiteSpace=wrap;html=1;fillColor=#dae8fc;fillStyle=auto;fontFamily=Courier New;fontStyle=1;horizontal=1;strokeColor=#6c8ebf;fontSize=10;" vertex="1" parent="1">
          <mxGeometry x="165.5" y="481" width="83.5" height="32" as="geometry" />
        </mxCell>
        <mxCell id="JuTXXJLlA8d2acPgj7VG-90" value="AWS S3" style="rounded=1;whiteSpace=wrap;html=1;fillColor=#f8cecc;fillStyle=auto;fontFamily=Courier New;fontStyle=1;horizontal=1;strokeColor=#b85450;fontSize=10;" vertex="1" parent="1">
          <mxGeometry x="265" y="481" width="61" height="32" as="geometry" />
        </mxCell>
        <mxCell id="JuTXXJLlA8d2acPgj7VG-91" value="Hashicorp Vault" style="rounded=1;whiteSpace=wrap;html=1;fillColor=#fff2cc;fillStyle=auto;fontFamily=Courier New;fontStyle=1;horizontal=1;strokeColor=#d6b656;fontSize=10;" vertex="1" parent="1">
          <mxGeometry x="343" y="481" width="117" height="32" as="geometry" />
        </mxCell>
        <mxCell id="JuTXXJLlA8d2acPgj7VG-92" value="&lt;font style=&quot;font-size: 10px;&quot; face=&quot;Courier New&quot;&gt;&lt;span&gt;JWC&lt;/span&gt; - JWizard Core&lt;/font&gt;&lt;div style=&quot;font-size: 10px;&quot;&gt;&lt;font style=&quot;font-size: 10px;&quot; face=&quot;Courier New&quot;&gt;&lt;span&gt;JWA&lt;/span&gt; - JWizard API&lt;/font&gt;&lt;/div&gt;&lt;div style=&quot;font-size: 10px;&quot;&gt;&lt;font style=&quot;font-size: 10px;&quot; face=&quot;Courier New&quot;&gt;&lt;span&gt;JWW&lt;/span&gt; - JWizard Web&lt;/font&gt;&lt;/div&gt;" style="text;html=1;align=left;verticalAlign=middle;whiteSpace=wrap;rounded=0;fontFamily=Helvetica;fontSize=11;fontColor=#000000;labelBackgroundColor=none;fontStyle=1" vertex="1" parent="1">
          <mxGeometry x="627" y="371" width="131" height="53" as="geometry" />
        </mxCell>
        <mxCell id="JuTXXJLlA8d2acPgj7VG-95" style="edgeStyle=orthogonalEdgeStyle;shape=connector;rounded=1;orthogonalLoop=1;jettySize=auto;html=1;exitX=0;exitY=0.5;exitDx=0;exitDy=0;entryX=0.995;entryY=0.517;entryDx=0;entryDy=0;entryPerimeter=0;strokeColor=#0A0A0A;align=center;verticalAlign=middle;fontFamily=Helvetica;fontSize=11;fontColor=default;labelBackgroundColor=default;endArrow=none;endFill=0;" edge="1" parent="1" source="JuTXXJLlA8d2acPgj7VG-3" target="JuTXXJLlA8d2acPgj7VG-8">
          <mxGeometry relative="1" as="geometry" />
        </mxCell>
        <mxCell id="JuTXXJLlA8d2acPgj7VG-96" style="edgeStyle=orthogonalEdgeStyle;shape=connector;rounded=1;orthogonalLoop=1;jettySize=auto;html=1;exitX=0;exitY=0.5;exitDx=0;exitDy=0;entryX=0.999;entryY=0.485;entryDx=0;entryDy=0;entryPerimeter=0;strokeColor=#050505;align=center;verticalAlign=middle;fontFamily=Helvetica;fontSize=11;fontColor=default;labelBackgroundColor=default;endArrow=none;endFill=0;" edge="1" parent="1" source="JuTXXJLlA8d2acPgj7VG-2" target="JuTXXJLlA8d2acPgj7VG-8">
          <mxGeometry relative="1" as="geometry" />
        </mxCell>
      </root>
    </mxGraphModel>
  </diagram>
</mxfile>
